Coordinates
version=1
nRows=12
nColumns=24
inDegrees=yes

Units are S.I. units (second, meters, Newtons, ...)
Angles are in degrees.

endheader
time	pelvis_tilt	pelvis_list	pelvis_rotation	pelvis_tx	pelvis_ty	pelvis_tz	hip_flexion_r	hip_adduction_r	hip_rotation_r	knee_angle_r	ankle_angle_r	subtalar_angle_r	mtp_angle_r	hip_flexion_l	hip_adduction_l	hip_rotation_l	knee_angle_l	ankle_angle_l	subtalar_angle_l	mtp_angle_l	lumbar_extension	lumbar_bending	lumbar_rotation
      0.72500000	     -3.41701898	      4.49240123	     15.35642232	      0.10561220	      0.97363752	      0.23356937	     28.97387219	     -9.00802353	    -10.91735950	      1.08688129	      8.90438163	    -11.63310987	      7.28617153	    -21.62585533	      3.25430291	     16.24542272	     -3.46509791	      8.17277253	     -6.92955255	      9.96968969	     -1.38067848	     -5.95157976	     -8.20991445
      0.72916667	     -3.41428195	      4.42793429	     15.49275749	      0.11200561	      0.97313880	      0.23357083	     28.89587731	     -8.95379118	    -10.83075867	      0.67857887	      9.00851240	    -11.72076643	      7.27625578	    -21.75641583	      3.06556175	     16.28285685	     -3.85114452	      7.91946121	     -6.86344834	      9.98655035	     -1.33549552	     -5.84897699	     -8.24940629
      0.73333333	     -3.39471618	      4.35986320	     15.60565102	      0.11849062	      0.97267219	      0.23361766	     28.79461907	     -8.87490023	    -10.70802784	      0.25813572	      9.08255114	    -11.83855746	      7.26402131	    -21.90104736	      2.87292267	     16.25933109	     -4.24215274	      7.64357025	     -6.73842303	     10.02912938	     -1.27227321	     -5.73029509	     -8.35081894
      0.73750000	     -3.37483917	      4.26601798	     15.71621697	      0.12502359	      0.97222711	      0.23371698	     28.67342644	     -8.75781468	    -10.52885641	     -0.12985423	      9.00836215	    -12.07621184	      7.23640319	    -21.99209985	      2.65563083	     16.11038583	     -4.72758020	      7.43762153	     -6.40721423	     10.23657132	     -1.23540716	     -5.59635236	     -8.57612273
      0.74166667	     -3.36647156	      4.16738328	     15.81263075	      0.13165903	      0.97179398	      0.23379136	     28.58425441	     -8.63520720	    -10.41715720	     -0.58039122	      8.96887631	    -12.20055443	      7.23493989	    -22.10533159	      2.44211176	     16.06771239	     -5.14020578	      7.08444151	     -6.30612854	     10.32080718	     -1.13718421	     -5.44835661	     -8.60144643
      0.74583333	     -3.34265106	      4.04712761	     15.89440245	      0.13832937	      0.97139412	      0.23395740	     28.45574864	     -8.46602488	    -10.20240208	     -0.97367062	      8.74605982	    -12.54595649	      7.25480163	    -22.17312186	      2.20643455	     15.85907404	     -5.66604370	      6.83414107	     -5.97294562	     10.67226842	     -1.08084921	     -5.28727295	     -8.72890336
      0.75000000	     -3.33097425	      3.89979183	     15.97153262	      0.14509988	      0.97100002	      0.23408603	     28.37589299	     -8.27898596	    -10.13826577	     -1.44920012	      8.61395301	    -12.63711233	      7.91635814	    -22.22172935	      1.94707263	     15.62347910	     -6.17630579	      6.45855909	     -5.68327398	     16.01396801	     -0.96934493	     -5.08306025	     -8.68016280
      0.75416667	     -3.32626814	      3.77255362	     16.02339844	      0.15188431	      0.97063864	      0.23428232	     28.28428292	     -8.09037305	     -9.92012330	     -1.87860693	      8.26723402	    -12.98102561	      7.92697490	    -22.28470660	      1.72377728	     15.51722569	     -6.65994630	      6.01541939	     -5.60646462	     16.08807879	     -0.86288966	     -4.92523043	     -8.83426422
      0.75833333	     -3.31573236	      3.60890834	     16.06239032	      0.15874806	      0.97030309	      0.23449281	     28.19874147	     -7.85851080	     -9.75452177	     -2.32206609	      7.90838419	    -13.26589746	      7.96546176	    -22.31179222	      1.46660062	     15.28574728	     -7.20870717	      5.61395916	     -5.35671733	     16.23096704	     -0.73410282	     -4.71263750	     -8.87326528
      0.76250000	     -3.31464048	      3.43507830	     16.08535622	      0.16564911	      0.96997847	      0.23473668	     28.13888855	     -7.61121308	     -9.58520880	     -2.78801523	      7.49345531	    -13.56367725	      8.03972465	    -22.30770279	      1.20784369	     15.01498851	     -7.78957905	      5.18679955	     -5.05806269	     16.47218168	     -0.59520233	     -4.49600801	     -8.90784562
      0.76666667	     -3.31929289	      3.24437853	     16.09165922	      0.17259965	      0.96967607	      0.23499136	     28.09623917	     -7.34198829	     -9.42289024	     -3.26538466	      7.03922440	    -13.86195595	      8.14185786	    -22.27769817	      0.94306681	     14.71927027	     -8.40022843	      4.72738289	     -4.78111729	     16.78495027	     -0.43077999	     -4.25673889	     -8.92727565
      0.77083333	     -3.30576283	      3.06686893	     16.07037418	      0.17957730	      0.96944042	      0.23524096	     28.07525849	     -7.08295103	     -9.35562145	     -3.82451060	      6.62858947	    -13.91486772	      8.17202518	    -22.29155833	      0.70212903	     14.50744964	     -8.96054996	      4.12076093	     -4.69988003	     16.87917573	     -0.27543227	     -4.02762740	     -8.94744355
